<svg width="16" height="16" viewBox="0 0 16 16" fill="none" xmlns="http://www.w3.org/2000/svg">
<path fill-rule="evenodd" clip-rule="evenodd" d="M14.6123 7.79278C14.5479 7.92447 14.5479 8.07553 14.6123 8.20725L15.209 9.42801C15.5413 10.1077 15.278 10.9179 14.6097 11.2725L13.4094 11.9094C13.28 11.9781 13.1912 12.1003 13.1658 12.2447L12.9311 13.583C12.8004 14.3282 12.1114 14.829 11.3621 14.723L10.0167 14.5326C9.87154 14.5123 9.72792 14.5588 9.62255 14.6607L8.64593 15.6055C8.37412 15.8685 8.0251 16 7.67626 16C7.32732 16 6.97851 15.8685 6.70658 15.6055L5.73 14.6607C5.62462 14.5588 5.48094 14.512 5.33585 14.5326L3.99045 14.723C3.9233 14.7325 3.85649 14.7371 3.79064 14.7371C3.12212 14.7371 2.54044 14.2614 2.42144 13.583L2.18669 12.2446C2.16135 12.1003 2.07257 11.978 1.94307 11.9094L0.742773 11.2725C0.0744681 10.9179 -0.188779 10.1078 0.143467 9.42804L0.740211 8.20731C0.804585 8.07562 0.804585 7.92456 0.740211 7.79284L0.143499 6.57211C-0.188748 5.8924 0.0744994 5.08219 0.742804 4.72763L1.9431 4.09076C2.07257 4.02204 2.16135 3.89983 2.18669 3.75545L2.42144 2.41712C2.55216 1.67195 3.24121 1.17114 3.99042 1.27717L5.33581 1.46748C5.481 1.48792 5.62459 1.44132 5.72997 1.33939L6.70658 0.394554C7.25032 -0.131534 8.10219 -0.131502 8.64596 0.394554L9.62255 1.33929C9.72789 1.4412 9.87148 1.48789 10.0167 1.46739L11.3621 1.27708C12.111 1.17111 12.8004 1.67185 12.9311 2.41703L13.1658 3.75542C13.1912 3.89976 13.2799 4.02201 13.4094 4.0907L14.6097 4.72757C15.278 5.08216 15.5413 5.8923 15.209 6.57201L14.6123 7.79278ZM12.9769 11.0942L14.1772 10.4573C14.4033 10.3373 14.4924 10.0632 14.38 9.83316L13.7832 8.61243C13.593 8.22321 13.593 7.77672 13.7832 7.38751L14.38 6.16677C14.4924 5.9368 14.4033 5.66271 14.1772 5.54275L12.9769 4.90588C12.5942 4.70285 12.3317 4.34163 12.2569 3.91489L12.0221 2.5765C11.9779 2.32438 11.7446 2.15497 11.4913 2.19081L10.1459 2.38113C9.71692 2.44184 9.29227 2.30384 8.98087 2.0026L8.00428 1.05786C7.82028 0.879924 7.53207 0.879924 7.34813 1.05786L6.37152 2.0026C6.06012 2.30381 5.6354 2.44184 5.2065 2.38113L3.86111 2.19081C3.60758 2.155 3.37452 2.32438 3.33027 2.5765L3.09553 3.91486C3.02068 4.3416 2.75822 4.70279 2.37554 4.90588L1.17524 5.54275C0.949114 5.66271 0.860053 5.9368 0.972458 6.16677L1.5692 7.38754C1.75945 7.77678 1.75945 8.22321 1.5692 8.61246L0.972458 9.83323C0.860053 10.0632 0.949114 10.3373 1.17524 10.4573L2.37554 11.0941C2.75825 11.2971 3.02068 11.6584 3.09556 12.0851L3.33034 13.4235C3.37459 13.6756 3.60787 13.845 3.86117 13.8092L5.20657 13.6189C5.273 13.6095 5.33935 13.6048 5.40516 13.6048C5.76434 13.6048 6.1084 13.7428 6.37158 13.9974L7.34817 14.9421C7.53216 15.1201 7.82038 15.1201 8.00431 14.9421L8.98093 13.9974C9.29233 13.6962 9.71689 13.5581 10.1459 13.6189L11.4913 13.8092C11.7449 13.845 11.978 13.6757 12.0222 13.4235L12.2569 12.0852C12.3318 11.6584 12.5942 11.2972 12.9769 11.0942ZM10.3951 4.62866C10.5753 4.44847 10.8674 4.44847 11.0476 4.62866C11.2278 4.80888 11.2278 5.101 11.0476 5.28121L4.95736 11.3714C4.8673 11.4615 4.74917 11.5066 4.63111 11.5066C4.51305 11.5066 4.39496 11.4615 4.30487 11.3714C4.12468 11.1912 4.12468 10.8991 4.30487 10.7189L10.3951 4.62866ZM5.83073 3.84747C4.89787 3.84747 4.13891 4.60643 4.13891 5.53929C4.13891 6.47216 4.89787 7.23112 5.83073 7.23112C6.7636 7.23112 7.52256 6.47216 7.52256 5.53929C7.52256 4.60643 6.7636 3.84747 5.83073 3.84747ZM5.83073 6.30829C5.40671 6.30829 5.06174 5.96332 5.06174 5.53926C5.06174 5.11524 5.40671 4.77027 5.83073 4.77027C6.25476 4.77027 6.59976 5.11524 6.59976 5.53926C6.59973 5.96332 6.25476 6.30829 5.83073 6.30829ZM7.82988 10.4607C7.82988 9.52787 8.58884 8.76891 9.52171 8.76891C10.4546 8.76891 11.2135 9.52787 11.2135 10.4607C11.2135 11.3936 10.4546 12.1526 9.52171 12.1526C8.58884 12.1526 7.82988 11.3936 7.82988 10.4607ZM8.75268 10.4607C8.75268 10.8848 9.09768 11.2297 9.52171 11.2297C9.94573 11.2297 10.2907 10.8848 10.2907 10.4607C10.2907 10.0367 9.94573 9.69174 9.52171 9.69174C9.09765 9.69174 8.75268 10.0367 8.75268 10.4607Z"/>
</svg>
