<svg width="18" height="16" viewBox="0 0 18 16" fill="none" xmlns="http://www.w3.org/2000/svg">
<path fill-rule="evenodd" clip-rule="evenodd" d="M14.0663 1.99994H15.5662C16.3933 1.99994 17.0662 2.67282 17.0662 3.4999V11.4997C17.0662 12.3268 16.3933 12.9996 15.5662 12.9996H14.0662V15.4996C14.0662 15.9464 13.5257 16.1662 13.2127 15.8531L10.3593 12.9996H4.70697L3.85342 13.8531C3.54063 14.166 2.99992 13.9457 2.99992 13.4996V10.9997H1.49996C0.672881 10.9997 0 10.3268 0 9.49973V1.49996C0 0.672881 0.672881 0 1.49996 0H12.5663C13.3934 0 14.0663 0.672881 14.0663 1.49996V1.99994ZM3.99989 10.4997V12.2926L6.14629 10.1462C6.24006 10.0524 6.36719 9.99972 6.49982 9.99972H12.5663C12.842 9.99972 13.0663 9.77542 13.0663 9.49973V1.49996C13.0663 1.22427 12.842 0.999972 12.5663 0.999972H1.49996C1.22427 0.999972 0.999972 1.22427 0.999972 1.49996V9.49973C0.999972 9.77542 1.22427 9.99972 1.49996 9.99972H3.4999C3.77603 9.99972 3.99989 10.2236 3.99989 10.4997ZM15.5662 11.9997C15.8419 11.9997 16.0662 11.7754 16.0662 11.4997V3.4999C16.0662 3.22421 15.8419 2.99992 15.5662 2.99992H14.0663V9.49973C14.0663 10.3268 13.3934 10.9997 12.5663 10.9997H6.70691L5.70694 11.9997H10.5664C10.699 11.9997 10.8261 12.0524 10.9199 12.1461L13.0663 14.2925V12.4996C13.0663 12.2235 13.2902 11.9997 13.5663 11.9997H15.5662ZM2.49993 2.99992H9.5664C9.84252 2.99992 10.0664 3.22378 10.0664 3.4999C10.0664 3.77603 9.84252 3.99989 9.5664 3.99989H2.49993C2.2238 3.99989 1.99994 3.77603 1.99994 3.4999C1.99994 3.22378 2.2238 2.99992 2.49993 2.99992ZM11.5663 4.99986H2.49993C2.2238 4.99986 1.99994 5.22372 1.99994 5.49984C1.99994 5.77597 2.2238 5.99983 2.49993 5.99983H11.5663C11.8425 5.99983 12.0663 5.77597 12.0663 5.49984C12.0663 5.22372 11.8425 4.99986 11.5663 4.99986ZM2.49993 6.9998H7.56645C7.84258 6.9998 8.06644 7.22366 8.06644 7.49979C8.06644 7.77591 7.84258 7.99977 7.56645 7.99977H2.49993C2.2238 7.99977 1.99994 7.77591 1.99994 7.49979C1.99994 7.22366 2.2238 6.9998 2.49993 6.9998Z"/>
</svg>
