<svg width="20" height="20" viewBox="0 0 20 20" fill="none" xmlns="http://www.w3.org/2000/svg">
<path id="Union" fill-rule="evenodd" clip-rule="evenodd" d="M19.0181 2.45004L19.971 7.72075C20.0772 8.30802 19.8887 8.91056 19.4667 9.33256L9.33167 19.4675C8.97663 19.8225 8.51026 20 8.04389 20C7.57748 20 7.11115 19.8225 6.75608 19.4675L0.532506 13.2439C-0.177496 12.5337 -0.177495 11.3784 0.532467 10.6683L10.6675 0.533355C11.0894 0.111401 11.6921 -0.0769976 12.2792 0.0289792L17.55 0.981872C18.2937 1.11629 18.8837 1.70629 19.0181 2.45004ZM8.50229 18.6381L18.6372 8.50314C18.7875 8.3529 18.8546 8.13841 18.8168 7.92939L17.8639 2.65871C17.8161 2.39398 17.6061 2.18394 17.3414 2.13613L12.0706 1.1832C12.0323 1.17629 11.9937 1.17289 11.9554 1.17289C11.785 1.17289 11.6195 1.24011 11.4969 1.36273L1.36192 11.4977C1.10919 11.7505 1.10919 12.1617 1.36196 12.4144L7.58553 18.6381C7.83826 18.8909 8.24948 18.8909 8.50229 18.6381ZM14.0563 3.65692C14.6823 3.0309 15.7009 3.03086 16.3269 3.65692C16.6302 3.96016 16.7971 4.36336 16.7971 4.79223C16.7971 5.2211 16.6301 5.62427 16.3268 5.92755C16.0139 6.24052 15.6028 6.39704 15.1916 6.39704C14.7804 6.39704 14.3693 6.24052 14.0563 5.92751C13.4303 5.30149 13.4303 4.28293 14.0563 3.65692ZM15.4975 5.09809V5.09805C15.5792 5.01633 15.6242 4.90774 15.6242 4.79219C15.6242 4.67665 15.5792 4.56805 15.4975 4.48633C15.4132 4.40204 15.3024 4.35981 15.1916 4.35981C15.0809 4.35981 14.9701 4.40196 14.8857 4.48629C14.7171 4.65497 14.7171 4.92942 14.8857 5.09809C15.0544 5.26684 15.3289 5.26676 15.4975 5.09809ZM7.45912 14.9043L6.55294 13.9981L7.0833 13.4678C7.13713 13.4139 7.15701 13.3519 7.14295 13.2816C7.12892 13.2114 7.09502 13.1494 7.04111 13.0955C6.98263 13.037 6.91755 13.0012 6.84619 12.9883C6.77474 12.9755 6.71326 12.9948 6.66181 13.0462L6.13146 13.5766L5.53783 12.983L6.44755 12.0732C6.49904 12.0217 6.51607 11.958 6.49849 11.8819C6.48095 11.8058 6.43822 11.7338 6.37029 11.6658C6.30708 11.6026 6.23802 11.5617 6.16302 11.5429C6.08814 11.5242 6.02376 11.5417 5.96994 11.5956L4.75114 12.8144C4.68556 12.88 4.644 12.9508 4.62646 13.0269C4.60888 13.1031 4.62704 13.168 4.68087 13.2218L6.91123 15.4522C6.96517 15.5061 7.03361 15.5207 7.11674 15.4962C7.19982 15.4716 7.27881 15.4219 7.35377 15.3469C7.42869 15.2719 7.47845 15.193 7.50303 15.1098C7.52763 15.0267 7.51306 14.9582 7.45912 14.9043ZM10.3253 11.7221C10.3535 11.7267 10.3803 11.742 10.4061 11.7677C10.474 11.8356 10.5015 11.9369 10.4885 12.0715C10.4757 12.2063 10.4283 12.3146 10.3463 12.3965C10.2644 12.4785 10.1719 12.5031 10.0689 12.4703L8.65334 12.0172L8.4215 12.249L9.26795 13.0955C9.3219 13.1494 9.3365 13.2179 9.31193 13.301C9.28729 13.3842 9.23752 13.4631 9.1626 13.538C9.08768 13.613 9.00869 13.6627 8.92557 13.6873C8.84244 13.7119 8.77404 13.6973 8.7201 13.6433L6.48623 11.4095C6.44177 11.365 6.41892 11.3106 6.41775 11.2462C6.41658 11.1817 6.44056 11.125 6.48974 11.0758L7.21685 10.3487C7.79287 9.77271 8.3315 9.73525 8.83256 10.2363C9.19787 10.6016 9.29381 10.981 9.12057 11.3743L10.3253 11.7221ZM8.0001 11.8274L8.34787 11.4797C8.45088 11.3766 8.50412 11.2731 8.50768 11.1688C8.51119 11.0647 8.45447 10.954 8.33732 10.8369C8.22025 10.7198 8.10963 10.6631 8.00545 10.6666C7.90123 10.6701 7.7976 10.7234 7.69459 10.8264L7.34681 11.1742L8.0001 11.8274ZM12.4818 10.0783C12.4631 10.0033 12.4221 9.93428 12.3588 9.87103C12.291 9.80314 12.219 9.76045 12.1428 9.74283C12.0667 9.72537 12.0029 9.74232 11.9514 9.79377L11.0101 10.7351L10.413 10.138L10.9399 9.61115C10.9937 9.55732 11.0137 9.49521 10.9996 9.42498C10.9856 9.3547 10.9517 9.29271 10.8978 9.2388C10.8393 9.18033 10.7742 9.14459 10.7028 9.13169C10.6313 9.11884 10.5699 9.13818 10.5184 9.18962L9.99154 9.7165L9.39791 9.12287L10.3392 8.18154C10.3907 8.13005 10.4078 8.06626 10.3902 7.99013C10.3727 7.91408 10.3299 7.84204 10.262 7.77411C10.1988 7.71083 10.1297 7.66993 10.0547 7.65114C9.97986 7.63251 9.91545 7.65005 9.86162 7.70388L8.61122 8.95427C8.54572 9.01986 8.50411 9.09068 8.48658 9.16677C8.469 9.24295 8.48716 9.30783 8.54099 9.3617L10.7713 11.5921C10.8253 11.646 10.8902 11.6642 10.9662 11.6465C11.0424 11.629 11.1131 11.5874 11.1787 11.5218L12.4291 10.2714C12.4829 10.2176 12.5005 10.1533 12.4818 10.0783ZM14.252 7.9779C14.3152 8.04115 14.3562 8.11021 14.3749 8.18513C14.3937 8.26013 14.3761 8.3245 14.3222 8.37833L13.0718 9.62873C13.0062 9.69431 12.9355 9.73592 12.8594 9.75342C12.7833 9.77107 12.7184 9.75291 12.6645 9.69896L10.4341 7.46861C10.3803 7.41474 10.3621 7.34985 10.3797 7.27368C10.3973 7.19759 10.4389 7.12673 10.5044 7.06118L11.7548 5.81079C11.8086 5.75696 11.873 5.73942 11.9479 5.75805C12.0229 5.77684 12.0919 5.81774 12.1552 5.88102C12.2231 5.94895 12.2658 6.02098 12.2834 6.09704C12.3009 6.17317 12.2839 6.23692 12.2324 6.28845L11.2911 7.22974L11.8847 7.82337L12.4116 7.29653C12.463 7.24505 12.5245 7.22575 12.596 7.2386C12.6673 7.25146 12.7324 7.2872 12.7909 7.34568C12.8448 7.39958 12.8787 7.46157 12.8927 7.53185C12.9068 7.60208 12.8869 7.66419 12.833 7.71802L12.3062 8.24486L12.9033 8.84193L13.8446 7.90064C13.8961 7.84915 13.9598 7.83224 14.036 7.8497C14.1121 7.86732 14.1841 7.91001 14.252 7.9779Z"/>
</svg>
