<svg width="20" height="20" viewBox="0 0 20 20" fill="none" xmlns="http://www.w3.org/2000/svg">
<path id="Union" fill-rule="evenodd" clip-rule="evenodd" d="M19.018 2.44996L19.9709 7.72046C20.0771 8.30764 19.8885 8.91014 19.4666 9.33209L9.33213 19.4666C8.98822 19.8106 8.53088 20 8.04447 20C7.55807 20 7.10077 19.8106 6.75682 19.4666L0.533397 13.2432C0.189414 12.8993 0 12.442 0 11.9556C0 11.4692 0.189453 11.0119 0.533397 10.6679L10.6679 0.533364C11.0898 0.111451 11.6921 -0.0771419 12.2795 0.0290688L17.5501 0.981918C18.2937 1.11637 18.8836 1.70633 19.018 2.44996ZM7.35283 15.3443C7.42772 15.2695 7.47744 15.1905 7.50205 15.1073C7.52666 15.0242 7.51209 14.9558 7.45815 14.9018L6.55202 13.9957L7.08237 13.4654C7.13619 13.4115 7.15604 13.3494 7.14205 13.2792C7.12799 13.209 7.09405 13.1469 7.04018 13.0931C6.9817 13.0346 6.9167 12.9988 6.8453 12.9859C6.77385 12.9731 6.71237 12.9924 6.66092 13.0439L6.13057 13.5742L5.53698 12.9806L6.44667 12.071C6.49815 12.0195 6.51514 11.9557 6.49764 11.8795C6.48006 11.8035 6.43729 11.7315 6.3694 11.6636C6.30616 11.6003 6.23717 11.5593 6.16217 11.5406C6.08733 11.5219 6.02288 11.5395 5.96905 11.5933L4.7503 12.812C4.68472 12.8777 4.64311 12.9485 4.62561 13.0246C4.60804 13.1007 4.62624 13.1656 4.68007 13.2194L6.9103 15.4497C6.96424 15.5036 7.03264 15.5183 7.11577 15.4936C7.19889 15.4691 7.27783 15.4193 7.35283 15.3443ZM10.3452 12.3942C10.4271 12.3122 10.4746 12.2039 10.4874 12.0692C10.5003 11.9346 10.4728 11.8334 10.405 11.7654C10.3792 11.7397 10.3524 11.7245 10.3242 11.7198L9.11955 11.372C9.29279 10.9787 9.19682 10.5994 8.83158 10.2341C8.33053 9.73303 7.79194 9.77053 7.21596 10.3465L6.48893 11.0735C6.43975 11.1227 6.41573 11.1795 6.41686 11.2438C6.41807 11.3083 6.44084 11.3627 6.48534 11.4072L8.71908 13.641C8.77299 13.6949 8.84139 13.7095 8.92455 13.6849C9.00764 13.6603 9.08662 13.6106 9.16158 13.5356C9.23646 13.4608 9.28619 13.3818 9.31084 13.2986C9.33541 13.2155 9.32084 13.147 9.26693 13.0931L8.42053 12.2467L8.65232 12.0149L10.0677 12.4679C10.1708 12.5007 10.2632 12.4761 10.3452 12.3942ZM11.1776 11.5196L12.4279 10.2693C12.4818 10.2154 12.4994 10.1511 12.4806 10.0761C12.4618 10.0012 12.4208 9.93209 12.3576 9.86893C12.2897 9.801 12.2178 9.7583 12.1417 9.74069C12.0656 9.72319 12.0017 9.74018 11.9502 9.79163L11.009 10.7329L10.4119 10.1359L10.9388 9.60901C10.9926 9.55518 11.0125 9.49307 10.9985 9.42284C10.9845 9.3526 10.9505 9.29053 10.8967 9.23666C10.8382 9.17819 10.7731 9.14245 10.7017 9.12956C10.6303 9.1167 10.5688 9.13608 10.5174 9.18752L9.99049 9.7144L9.39689 9.12081L10.3382 8.17952C10.3897 8.12803 10.4067 8.06429 10.3892 7.98811C10.3716 7.91206 10.3288 7.84007 10.2609 7.77214C10.1977 7.70886 10.1287 7.66788 10.0537 7.64913C9.97884 7.63046 9.91439 7.64804 9.86056 7.70186L8.61021 8.95217C8.54463 9.0178 8.50307 9.08858 8.48553 9.16471C8.46795 9.24081 8.48615 9.30573 8.53998 9.35956L10.7702 11.5898C10.8241 11.6437 10.889 11.6619 10.9651 11.6443C11.0413 11.6267 11.112 11.5852 11.1776 11.5196ZM13.0706 9.62663L14.3209 8.37624C14.3748 8.32241 14.3924 8.25803 14.3735 8.18315C14.3547 8.10827 14.3137 8.03913 14.2506 7.97596C14.1826 7.90804 14.1107 7.86534 14.0345 7.84776C13.9584 7.83026 13.8946 7.84721 13.8431 7.89866L12.9018 8.83995L12.3048 8.24292L12.8317 7.71604C12.8855 7.66222 12.9054 7.60011 12.8914 7.52987C12.8773 7.45968 12.8434 7.39761 12.7895 7.34374C12.731 7.28526 12.666 7.24948 12.5946 7.23659C12.5232 7.22374 12.4617 7.24311 12.4102 7.29456L11.8834 7.82143L11.2898 7.22784L12.2311 6.28655C12.2825 6.23507 12.2995 6.17132 12.282 6.09515C12.2645 6.01909 12.2217 5.9471 12.1538 5.87917C12.0906 5.81589 12.0215 5.77495 11.9466 5.75617C11.8717 5.73749 11.8073 5.75507 11.7535 5.8089L10.5031 7.05921C10.4376 7.12483 10.396 7.19561 10.3785 7.27175C10.3609 7.34784 10.3791 7.41276 10.4329 7.46659L12.6631 9.69682C12.717 9.75073 12.7819 9.76889 12.858 9.75131C12.9341 9.73377 13.005 9.69221 13.0706 9.62663ZM15.1918 6.39679C15.6029 6.39679 16.014 6.2403 16.327 5.92734C16.6302 5.62406 16.7972 5.22089 16.7972 4.79207C16.7972 4.36324 16.6302 3.96008 16.327 3.65683C15.701 3.03082 14.6825 3.03086 14.0565 3.65683C13.4305 4.28281 13.4305 5.30132 14.0565 5.9273C14.3695 6.2403 14.7806 6.39679 15.1918 6.39679ZM15.4976 4.48617C15.4132 4.40183 15.3025 4.35965 15.1917 4.35965C15.0809 4.35965 14.9702 4.40179 14.8858 4.48613C14.7171 4.6548 14.7171 4.92925 14.8858 5.09789C15.0545 5.26664 15.3289 5.26656 15.4975 5.09789V5.09785C15.5793 5.01613 15.6243 4.90753 15.6243 4.79199C15.6243 4.67652 15.5793 4.56789 15.4976 4.48617ZM8.33628 10.8347C8.21917 10.7176 8.10858 10.661 8.00437 10.6644C7.90019 10.668 7.79655 10.7212 7.69355 10.8242L7.34581 11.1719L7.99909 11.8252L8.34683 11.4775C8.44983 11.3745 8.50308 11.2709 8.50663 11.1667C8.51015 11.0625 8.45339 10.9519 8.33628 10.8347Z" />
</svg>
