<svg width="22" height="20" viewBox="0 0 22 20" fill="none" xmlns="http://www.w3.org/2000/svg">
<path id="Vector" d="M20.6884 8.88559L18.9109 7.26591V1.89518C18.9109 1.55346 18.6338 1.27638 18.292 1.27638H14.0132C13.6715 1.27638 13.3944 1.55342 13.3944 1.89518V2.23933L11.2476 0.283222C10.8333 -0.0944211 10.2084 -0.09438 9.79415 0.283181L0.353349 8.88563C0.0214466 9.18811 -0.0882422 9.65415 0.0739279 10.0729C0.236139 10.4916 0.631085 10.7622 1.08016 10.7622H2.58798V19.3812C2.58798 19.7229 2.86501 20 3.20678 20H8.38147C8.72319 20 9.00027 19.7229 9.00027 19.3812V14.148H12.0415V19.3812C12.0415 19.7229 12.3186 20 12.6603 20H17.8348C18.1765 20 18.4536 19.723 18.4536 19.3812V10.7622H19.9617C20.4107 10.7622 20.8057 10.4916 20.9679 10.0729C21.1301 9.65415 21.0204 9.18811 20.6884 8.88559ZM17.8348 9.52462C17.4931 9.52462 17.216 9.80165 17.216 10.1434V18.7624H13.2792V13.5292C13.2792 13.1875 13.0021 12.9104 12.6604 12.9104H8.38147C8.03974 12.9104 7.76266 13.1874 7.76266 13.5292V18.7624H3.82554V10.1434C3.82554 9.80169 3.5485 9.52462 3.20674 9.52462H1.48957L10.521 1.29529L13.5965 4.09775C13.7777 4.2628 14.0392 4.30534 14.2633 4.20642C14.4874 4.10737 14.632 3.88536 14.632 3.64034V2.51399H17.6733V7.5392C17.6733 7.71333 17.7466 7.87933 17.8754 7.99662L19.5523 9.52462H17.8348Z"/>
</svg>
