<svg width="20" height="20" viewBox="0 0 20 20" fill="none" xmlns="http://www.w3.org/2000/svg">
<path id="Union" fill-rule="evenodd" clip-rule="evenodd" d="M10 0C15.5275 0 20 4.47311 20 10C20 15.5031 15.542 20 10 20C4.43512 20 0 15.4779 0 10C0 4.4725 4.47311 0 10 0ZM18.8281 10C18.8281 5.13214 14.8679 1.17188 10 1.17188C5.13214 1.17188 1.17188 5.13214 1.17188 10C1.17188 11.7807 1.70151 13.4923 2.68372 14.942C6.63498 10.6918 13.3722 10.6995 17.3163 14.942C18.2985 13.4923 18.8281 11.7807 18.8281 10ZM3.41461 15.8789C6.92139 11.9455 13.0795 11.9464 16.5852 15.8789C13.0667 19.8154 6.93466 19.8166 3.41461 15.8789ZM13.5156 7.07031C13.5156 9.00879 11.9385 10.5859 10 10.5859C8.06152 10.5859 6.48438 9.00879 6.48438 7.07031V5.89844C6.48438 3.95996 8.06152 2.38281 10 2.38281C11.9385 2.38281 13.5156 3.95996 13.5156 5.89844V7.07031ZM10 3.55469C8.70758 3.55469 7.65625 4.60602 7.65625 5.89844V7.07031C7.65625 8.36273 8.70758 9.41406 10 9.41406C11.2924 9.41406 12.3438 8.36273 12.3438 7.07031V5.89844C12.3438 4.60602 11.2924 3.55469 10 3.55469Z"/>
</svg>
