<svg width="17" height="20" viewBox="0 0 17 20" fill="none" xmlns="http://www.w3.org/2000/svg">
<path id="Union" fill-rule="evenodd" clip-rule="evenodd" d="M1.97821 13.8979V7.61719C1.97821 4.26074 4.55723 1.49582 7.83758 1.19879V0H9.00946V1.19879C12.2898 1.49586 14.8688 4.26078 14.8688 7.61719V13.8979C14.8688 14.2758 15.0159 14.631 15.2831 14.8982C15.7716 15.3867 16.0407 16.0362 16.0407 16.7271V17.6562H11.2943C11.022 18.9919 9.83836 20 8.42352 20C7.00868 20 5.82496 18.9919 5.55278 17.6562H0.806332V16.7271C0.806332 16.0362 1.07539 15.3867 1.56391 14.8982C1.83106 14.631 1.97821 14.2758 1.97821 13.8979ZM6.76649 17.6559C7.00836 18.3382 7.65965 18.8281 8.42352 18.8281C9.18739 18.8281 9.83868 18.3382 10.0805 17.6559H6.76649ZM13.697 13.8979V7.61719C13.697 4.70941 11.3313 2.34375 8.42352 2.34375C5.51575 2.34375 3.15008 4.70941 3.15008 7.61719V13.8979C3.15008 14.5888 2.88102 15.2383 2.39254 15.7268C2.18348 15.9359 2.04789 16.1988 1.99883 16.4844H14.8482C14.7991 16.1989 14.6636 15.9359 14.4545 15.7268C13.966 15.2383 13.697 14.5888 13.697 13.8979ZM4.50426 1.08779L3.89938 0.0841141C2.01223 1.22142 0.627422 3.00482 0 5.10579L1.12285 5.44111C1.66664 3.62025 2.8675 2.07419 4.50426 1.08779ZM15.7241 5.44111L16.847 5.10579C16.2196 3.00482 14.8348 1.22142 12.9477 0.0841141L12.3428 1.08783C13.9795 2.07419 15.1804 3.62025 15.7241 5.44111Z"/>
</svg>
