<svg width="17" height="20" viewBox="0 0 17 20" fill="none" xmlns="http://www.w3.org/2000/svg">
<path id="Union" fill-rule="evenodd" clip-rule="evenodd" d="M1.97812 7.61719V13.898C1.97812 14.2757 1.83105 14.631 1.56386 14.8982C1.07519 15.3869 0.806246 16.0363 0.806246 16.727V17.6562H16.0406V16.727C16.0406 16.0363 15.7717 15.3869 15.283 14.8982C15.0158 14.631 14.8687 14.2757 14.8687 13.898V7.61719C14.8687 4.26098 12.2894 1.49895 9.00937 1.20156V0H7.8375V1.20156C4.55746 1.49895 1.97812 4.26098 1.97812 7.61719ZM3.89902 0.0841141L4.50441 1.08779C2.86734 2.07427 1.66684 3.62036 1.12266 5.44111L0 5.10579C0.627734 3.00466 2.01246 1.22165 3.89902 0.0841141ZM16.8468 5.10579L15.7242 5.44111C15.18 3.62036 13.9795 2.07427 12.3425 1.08775L12.9479 0.0841141C14.8344 1.22165 16.2191 3.00466 16.8468 5.10579ZM10.7522 18.8281C10.2169 19.5353 9.37672 20 8.42344 20C7.47015 20 6.63 19.5353 6.09465 18.8281H10.7522Z"/>
</svg>
