<svg width="20" height="20" viewBox="0 0 20 20" fill="none" xmlns="http://www.w3.org/2000/svg">
<path id="Union" fill-rule="evenodd" clip-rule="evenodd" d="M0 9.96094C0 4.41504 4.57441 0 10.0391 0C15.5449 0 20 4.45547 20 9.96094C20 15.4196 15.591 20 10.0391 20C4.5234 20 0 15.4497 0 9.96094ZM1.16406 9.96094C1.16406 14.8503 5.14969 18.8359 10.0391 18.8359C14.8854 18.8359 18.8359 14.8503 18.8359 9.96094C18.8359 5.11465 14.8854 1.16406 10.0391 1.16406C5.14969 1.16406 1.16406 5.11465 1.16406 9.96094ZM11.7969 8.20312H14.7266C15.6958 8.20312 16.4844 8.99168 16.4844 9.96094C16.4844 10.9302 15.6958 11.7188 14.7266 11.7188H11.7969V14.7266C11.7969 15.6958 11.0083 16.4844 10.0391 16.4844C9.06981 16.4844 8.28125 15.6958 8.28125 14.7266V11.7188H5.27344C4.30418 11.7188 3.51562 10.9302 3.51562 9.96094C3.51562 8.99168 4.30418 8.20312 5.27344 8.20312H8.28125V5.27344C8.28125 4.30418 9.06981 3.51562 10.0391 3.51562C11.0083 3.51562 11.7969 4.30418 11.7969 5.27344V8.20312ZM11.2109 10.5469H14.7266C15.0496 10.5469 15.3125 10.284 15.3125 9.96094C15.3125 9.63785 15.0496 9.375 14.7266 9.375H11.2109C10.8873 9.375 10.625 9.11266 10.625 8.78906V5.27344C10.625 4.95035 10.3621 4.6875 10.0391 4.6875C9.71598 4.6875 9.45312 4.95035 9.45312 5.27344V8.78906C9.45312 9.11266 9.19078 9.375 8.86719 9.375H5.27344C4.95035 9.375 4.6875 9.63785 4.6875 9.96094C4.6875 10.284 4.95035 10.5469 5.27344 10.5469H8.86719C9.19078 10.5469 9.45312 10.8092 9.45312 11.1328V14.7266C9.45312 15.0496 9.71598 15.3125 10.0391 15.3125C10.3621 15.3125 10.625 15.0496 10.625 14.7266V11.1328C10.625 10.8092 10.8873 10.5469 11.2109 10.5469Z"/>
</svg>
